<mxfile host="app.diagrams.net" modified="2024-05-13T23:04:26.294Z" agent="Mozilla/5.0 (Macintosh; Intel Mac OS X 10_15_7) AppleWebKit/605.1.15 (KHTML, like Gecko) Version/17.2.1 Safari/605.1.15" etag="6Rmwv4ng8vfQg5xOgUyU" version="24.4.0" type="github" pages="2">
  <diagram name="use-case" id="9ZmzEBOo0Ev5dIL-j1Jn">
    <mxGraphModel dx="954" dy="622" grid="0" gridSize="10" guides="0" tooltips="1" connect="1" arrows="1" fold="1" page="0" pageScale="1" pageWidth="850" pageHeight="1100" math="0" shadow="0">
      <root>
        <mxCell id="0" />
        <mxCell id="1" parent="0" />
        <mxCell id="AkTV5vrw47WEEAWnuP5z-3" style="rounded=0;orthogonalLoop=1;jettySize=auto;html=1;endArrow=none;endFill=0;" edge="1" parent="1" source="AkTV5vrw47WEEAWnuP5z-1" target="AkTV5vrw47WEEAWnuP5z-2">
          <mxGeometry relative="1" as="geometry" />
        </mxCell>
        <mxCell id="AkTV5vrw47WEEAWnuP5z-1" value="Пользователь" style="shape=umlActor;verticalLabelPosition=bottom;verticalAlign=top;html=1;outlineConnect=0;" vertex="1" parent="1">
          <mxGeometry x="177" y="304" width="30" height="60" as="geometry" />
        </mxCell>
        <mxCell id="AkTV5vrw47WEEAWnuP5z-6" value="Система" style="swimlane;whiteSpace=wrap;html=1;" vertex="1" parent="1">
          <mxGeometry x="318" y="161" width="236" height="396" as="geometry" />
        </mxCell>
        <mxCell id="AkTV5vrw47WEEAWnuP5z-2" value="Создавать оповещение" style="ellipse;whiteSpace=wrap;html=1;" vertex="1" parent="AkTV5vrw47WEEAWnuP5z-6">
          <mxGeometry x="61" y="51" width="120" height="80" as="geometry" />
        </mxCell>
        <mxCell id="AkTV5vrw47WEEAWnuP5z-7" value="Отправлять оповещение" style="ellipse;whiteSpace=wrap;html=1;" vertex="1" parent="AkTV5vrw47WEEAWnuP5z-6">
          <mxGeometry x="60" y="156" width="120" height="80" as="geometry" />
        </mxCell>
        <mxCell id="AkTV5vrw47WEEAWnuP5z-9" value="Создавать отклик на оповещение" style="ellipse;whiteSpace=wrap;html=1;" vertex="1" parent="AkTV5vrw47WEEAWnuP5z-6">
          <mxGeometry x="66" y="273" width="120" height="80" as="geometry" />
        </mxCell>
        <mxCell id="AkTV5vrw47WEEAWnuP5z-8" style="rounded=0;orthogonalLoop=1;jettySize=auto;html=1;endArrow=none;endFill=0;" edge="1" parent="1" source="AkTV5vrw47WEEAWnuP5z-1" target="AkTV5vrw47WEEAWnuP5z-7">
          <mxGeometry relative="1" as="geometry">
            <mxPoint x="199" y="336" as="sourcePoint" />
            <mxPoint x="392" y="295" as="targetPoint" />
          </mxGeometry>
        </mxCell>
        <mxCell id="AkTV5vrw47WEEAWnuP5z-10" style="rounded=0;orthogonalLoop=1;jettySize=auto;html=1;endArrow=none;endFill=0;" edge="1" parent="1" source="AkTV5vrw47WEEAWnuP5z-1" target="AkTV5vrw47WEEAWnuP5z-9">
          <mxGeometry relative="1" as="geometry">
            <mxPoint x="199" y="341" as="sourcePoint" />
            <mxPoint x="389" y="361" as="targetPoint" />
          </mxGeometry>
        </mxCell>
      </root>
    </mxGraphModel>
  </diagram>
  <diagram id="aySjls563fmaMXPaoZcX" name="архитектура">
    <mxGraphModel dx="954" dy="622" grid="0" gridSize="10" guides="1" tooltips="1" connect="1" arrows="1" fold="1" page="0" pageScale="1" pageWidth="850" pageHeight="1100" math="0" shadow="0">
      <root>
        <mxCell id="0" />
        <mxCell id="1" parent="0" />
      </root>
    </mxGraphModel>
  </diagram>
</mxfile>
